# xmcd
#
# Track frame offsets:
# 150
# 16018
# 36596
# 57548
# 74431
# 95851
# 121000
# 148506
# 167914
# 198033
# 216791
# 234605
#
# Disc length: 3413 seconds
#
#
# Revision: 6
# Processed by: cddbd v1.5.1PL0 Copyright (c) Steve Scherf et al.
# Submitted via: FreeRIP 2.90 
#
DISCID=ae0d530c
DTITLE=soda stereo/ dinamo - soda stereo/ dinamo
DYEAR=1900
DGENRE=blues
TTITLE0=secuencia inicial
TTITLE1=toma la ruta
TTITLE2=en remolinos
TTITLE3=primavera 0
TTITLE4=camaleOn
TTITLE5=luna roja
TTITLE6=sweet sahumerio
TTITLE7=ameba
TTITLE8=nuestra fe
TTITLE9=claro oscuro
TTITLE10=fuE
TTITLE11=texturas
EXTD=
EXTT0=
EXTT1=
EXTT2=
EXTT3=
EXTT4=
EXTT5=
EXTT6=
EXTT7=
EXTT8=
EXTT9=
EXTT10=
EXTT11=
PLAYORDER=
